/* XPM */
static char * background_xpm[] = {
"32 32 93 2",
"  	c #47D98E",
". 	c #47D990",
"+ 	c #47DA90",
"@ 	c #47DA91",
"# 	c #47D88F",
"$ 	c #47D991",
"% 	c #47DB91",
"& 	c #47D98F",
"* 	c #47DA93",
"= 	c #36C692",
"- 	c #3DCE92",
"; 	c #42D491",
"> 	c #3BCB91",
", 	c #3ECF92",
"' 	c #41D291",
") 	c #3ACA91",
"! 	c #3FD091",
"~ 	c #44D690",
"{ 	c #3CCC91",
"] 	c #41D393",
"^ 	c #39C992",
"/ 	c #3ACB91",
"( 	c #3FD191",
"_ 	c #38C892",
": 	c #38C992",
"< 	c #47DB94",
"[ 	c #46D890",
"} 	c #43D490",
"| 	c #45D994",
"1 	c #47DA94",
"2 	c #47DB93",
"3 	c #47D88E",
"4 	c #46D991",
"5 	c #43D590",
"6 	c #47DA92",
"7 	c #41D28F",
"8 	c #42D391",
"9 	c #3ACB92",
"0 	c #3BCC91",
"a 	c #41D391",
"b 	c #39C991",
"c 	c #43D591",
"d 	c #47D88D",
"e 	c #3ED091",
"f 	c #40D291",
"g 	c #45D691",
"h 	c #48D990",
"i 	c #48DA90",
"j 	c #48DA8E",
"k 	c #48DA91",
"l 	c #49DA90",
"m 	c #4EDD90",
"n 	c #50DF90",
"o 	c #51DF90",
"p 	c #52E090",
"q 	c #53E190",
"r 	c #51E090",
"s 	c #52E08E",
"t 	c #55E28F",
"u 	c #57E38F",
"v 	c #58E48F",
"w 	c #5AE58F",
"x 	c #4FDD8E",
"y 	c #72F48E",
"z 	c #73F48E",
"A 	c #74F58F",
"B 	c #74F58E",
"C 	c #75F68E",
"D 	c #75F58E",
"E 	c #76F68E",
"F 	c #7CFA8E",
"G 	c #7AF98E",
"H 	c #7BF98E",
"I 	c #77F78E",
"J 	c #52E190",
"K 	c #5BE690",
"L 	c #6DF18F",
"M 	c #5CE790",
"N 	c #4EDE91",
"O 	c #64EB8F",
"P 	c #56E390",
"Q 	c #49DB91",
"R 	c #5AE590",
"S 	c #5AE690",
"T 	c #72F48F",
"U 	c #59E590",
"V 	c #6CF08F",
"W 	c #58E490",
"X 	c #64EC8F",
"Y 	c #60E990",
"Z 	c #5DE790",
"` 	c #73F58E",
" .	c #70F28F",
"  . . . + @ . @ # .   . $ .         . $ .   . # @ . @ + . . . $ ",
"  . %   .   & * . @ . + @ + @     @ + @ + . @ . * &   .   % . % ",
"$ @ + . @ . . + . *   . @ .   . .   = - ; > , ' ) ! ~ @ . + @ . ",
"  . . * . @ . @ + . *     . . . . . ) { ) ] ^ / ( _ : . * . . . ",
".   $   $ @ . @ < . * @ . . . . . . [ [ ; * } | @ ~ ; $   $   . ",
"1   . . * @ + +   . . #   . * . . * .   # . .   + + @ * . .   2 ",
".   .   . . .   . @ @ .     . @ @ .     . @ @ .   . . .   .   . ",
"$ 3   @     + 4     3 5 5 @ . . . . @ . .       @ +     @   3 6 ",
". @ . 5 ^ 7 8 9 0 a 0 b 0 c   . .   $ +   . + . @ .   . + . @ . ",
"d . @ $ / 9 : ; ! / ; e ^ f .     . @ . @ . + $ + . @ . $ @ . @ ",
"$ @ + . @ . ~ . . * . @ } g . . . . $ . @ . * . . . . @ . + @ . ",
". h i i j i k i h . . k i l l l l l l i k . . h i k i j i i h   ",
"m n o p p p q p o o r s t u v w w v u t s r o o p q p p p o n x ",
"y z A B B C B B B B D D D C E E E E C D D D B B B B C B B A z y ",
"F F F F F F F F F F F F F F F F F F F F F F F F F F F F F F F F ",
"F F F F F F F F F F F F F F F F F F F F F F F F F F F F F F F F ",
"F F F F F F F F F F F F F F F F F F F F F F F F F F F F F F F F ",
"F F F F F F F F F F F F F F F F F F F F F F F F F F F F F F F F ",
"F F F F F F F F F F F F F F F F F F F F F F F F F F F F F F F F ",
"F F F F F F F F F F F F F F F F F F F F F F F F F F F F F F F F ",
"F F F F F F F F F F F F F F F F F F F F F F F F F F F F F F F F ",
"F F F F F F F F F F F F F F F F F F F F F F F F F F F F F F F F ",
"F F F F F F F F F F F F F F F F F F F F F F F F F F F F F F F F ",
"F F F F F F F F F F F F F F F F F F G F F H H F F F F F F F F F ",
"F F F F F F F F F F F F F F F F F I J K L M N O P Q R S T F F F ",
"F F F F F F F F F F F F F F F F F G U V q W X K Y Z V q C F F F ",
"F F F F F F F F F F F F F F F F F F ` H F F F F F F F  .H F F F ",
"F F F F F F F F F F F F F F F F F F F F F F F F F F F F F F F F ",
"F F F F F F F F F F F F F F F F F F F F F F F F F F F F F F F F ",
"F F F F F F F F F F F F F F F F F F F F F F F F F F F F F F F F ",
"F F F F F F F F F F F F F F F F F F F F F F F F F F F F F F F F ",
"F F F F F F F F F F F F F F F F F F F F F F F F F F F F F F F F "};
