/* XPM */
static char * grass_xpm[] = {
"32 32 2 1",
" 	c #5CE430",
".	c #0D9300",
"                                ",
"                                ",
" . . . . . . . . . . . . . . . .",
". . . . . . . . . . . . . . . . ",
" . . . . . . . . . . . . . . . .",
". . . . . . . . . . . . . . . . ",
" . . . . . . . . . . . . . . . .",
". . . . . . . . . . . . . . . . ",
" . . . . . . . . . . . . . . . .",
". . . . . . . . . . . . . . . . ",
" . . . . . . . . . . . . . . . .",
". . . . . . . . . . . . . . . . ",
" . . . . . . . . . . . . . . . .",
". . . . . . . . . . . . . . . . ",
" . . . . . . . . . . . . . . . .",
". . . . . . . . . . . . . . . . ",
" . . . . . . . . . . . . . . . .",
". . . . . . . . . . . . . . . . ",
"                                ",
"                                ",
"                                ",
"                                ",
"                                ",
"                                ",
"                                ",
"                                ",
"                                ",
"                                ",
"                                ",
"                                ",
"                                ",
"                                "};
