/* XPM */
static char * colectible_xpm[] = {
"32 32 223 2",
"  	c #47D98E",
". 	c #47D990",
"+ 	c #47DA90",
"@ 	c #47DA91",
"# 	c #47D88F",
"$ 	c #47D991",
"% 	c #47DB91",
"& 	c #47D98F",
"* 	c #47DA93",
"= 	c #36C692",
"- 	c #3DCE92",
"; 	c #42D491",
"> 	c #3BCB91",
", 	c #3ECF92",
"' 	c #41D291",
") 	c #3ACA91",
"! 	c #3FD091",
"~ 	c #44D690",
"{ 	c #3CCC91",
"] 	c #41D393",
"^ 	c #39C992",
"/ 	c #3ACB91",
"( 	c #3FD191",
"_ 	c #38C892",
": 	c #38C992",
"< 	c #ABE97E",
"[ 	c #EBFA3C",
"} 	c #FCFF00",
"| 	c #EBF93C",
"1 	c #ABE97D",
"2 	c #43D490",
"3 	c #45D994",
"4 	c #47DA94",
"5 	c #C7F067",
"6 	c #C7F066",
"7 	c #47DB93",
"8 	c #DAF452",
"9 	c #D0D200",
"0 	c #929400",
"a 	c #5E5F00",
"b 	c #343500",
"c 	c #181800",
"d 	c #020200",
"e 	c #000000",
"f 	c #DAF453",
"g 	c #8BE189",
"h 	c #E2E500",
"i 	c #7C7D00",
"j 	c #222200",
"k 	c #020101",
"l 	c #090703",
"m 	c #191307",
"n 	c #31250F",
"o 	c #403013",
"p 	c #493716",
"q 	c #413113",
"r 	c #30250E",
"s 	c #0D0904",
"t 	c #010100",
"u 	c #212100",
"v 	c #8BE38B",
"w 	c #47D88E",
"x 	c #47DA92",
"y 	c #A7E77E",
"z 	c #E9EC00",
"A 	c #6A6B00",
"B 	c #050500",
"C 	c #20180A",
"D 	c #60491D",
"E 	c #906D2B",
"F 	c #B88C37",
"G 	c #DDA742",
"H 	c #ECB346",
"I 	c #F4B948",
"J 	c #F6BA49",
"K 	c #F1B648",
"L 	c #CF9D3E",
"M 	c #795B24",
"N 	c #171107",
"O 	c #B3B500",
"P 	c #151500",
"Q 	c #060502",
"R 	c #533F19",
"S 	c #AD8333",
"T 	c #DBA641",
"U 	c #F0B547",
"V 	c #E5AD44",
"W 	c #D09E3E",
"X 	c #C5953A",
"Y 	c #CB9A3C",
"Z 	c #CA993C",
"` 	c #EAB245",
" .	c #BB8E37",
"..	c #5C451B",
"+.	c #949600",
"@.	c #291E0C",
"#.	c #C6963B",
"$.	c #F5BA49",
"%.	c #826327",
"&.	c #876728",
"*.	c #96712C",
"=.	c #A87F32",
"-.	c #BA8D37",
";.	c #C7963B",
">.	c #B28735",
",.	c #AB8133",
"'.	c #9B762E",
").	c #896829",
"!.	c #7D5F25",
"~.	c #7E6026",
"{.	c #9C772E",
"].	c #B98C37",
"^.	c #C3943A",
"/.	c #E9B245",
"(.	c #7C5F25",
"_.	c #0A0802",
":.	c #95E487",
"<.	c #A8AA00",
"[.	c #281E0C",
"}.	c #D8A440",
"|.	c #BE9038",
"1.	c #725622",
"2.	c #806126",
"3.	c #AF8534",
"4.	c #CD9C3D",
"5.	c #E6AE44",
"6.	c #CE9D3D",
"7.	c #A27A30",
"8.	c #A77E31",
"9.	c #B18735",
"0.	c #0E0A04",
"a.	c #0F0F00",
"b.	c #0A0803",
"c.	c #C09139",
"d.	c #E1AB43",
"e.	c #D19E3E",
"f.	c #C19239",
"g.	c #8A6929",
"h.	c #121101",
"i.	c #E6E900",
"j.	c #453415",
"k.	c #AB8233",
"l.	c #654D1E",
"m.	c #D9A440",
"n.	c #271E0C",
"o.	c #797A00",
"p.	c #6F5421",
"q.	c #A57D31",
"r.	c #C9983C",
"s.	c #3B2C11",
"t.	c #272700",
"u.	c #040301",
"v.	c #B58936",
"w.	c #382B11",
"x.	c #E8B045",
"y.	c #A98032",
"z.	c #2F240E",
"A.	c #8D6A2A",
"B.	c #F2B748",
"C.	c #A67E31",
"D.	c #2E230E",
"E.	c #A17930",
"F.	c #EDB346",
"G.	c #B18634",
"H.	c #B48936",
"I.	c #4C3A17",
"J.	c #6B5120",
"K.	c #8F6C2A",
"L.	c #B08534",
"M.	c #DEA842",
"N.	c #775A23",
"O.	c #A37B30",
"P.	c #936F2C",
"Q.	c #120E05",
"R.	c #916E2B",
"S.	c #CE9C3D",
"T.	c #8E6B2A",
"U.	c #E8B145",
"V.	c #A0792F",
"W.	c #A47C31",
"X.	c #030201",
"Y.	c #372A10",
"Z.	c #7B5E25",
"`.	c #96722D",
" +	c #AC8233",
".+	c #AA8032",
"++	c #B68A36",
"@+	c #BD8F38",
"#+	c #BF9039",
"$+	c #B78B37",
"%+	c #AE8434",
"&+	c #7B5D24",
"*+	c #080602",
"=+	c #AAFB85",
"-+	c #705421",
";+	c #9E782F",
">+	c #9F792F",
",+	c #241C0B",
"'+	c #B8FC7C",
")+	c #7CFA8E",
"!+	c #58421A",
"~+	c #EFB547",
"{+	c #F3B848",
"]+	c #DFA942",
"^+	c #8B6929",
"/+	c #291F0C",
"(+	c #050401",
"_+	c #A4FB89",
":+	c #2B200D",
"<+	c #443414",
"[+	c #554119",
"}+	c #3A2C11",
"|+	c #1D1609",
"1+	c #9EF68A",
"2+	c #E0FE52",
"3+	c #DEFB53",
"4+	c #53E190",
"5+	c #75F68E",
"6+	c #D1FD64",
"7+	c #70F28F",
"8+	c #7BF98E",
"9+	c #BBFC7A",
"0+	c #EEFE3B",
"  . . . + @ . @ # .   . $ .         . $ .   . # @ . @ + . . . $ ",
"  . %   .   & * . @ . + @ + @     @ + @ + . @ . * &   .   % . % ",
"$ @ + . @ . . + . *   . @ .   . .   = - ; > , ' ) ! ~ @ . + @ . ",
"  . . * . @ . @ + . *     . . . . . ) { ) ] ^ / ( _ : . * . . . ",
".   $   $ @ . @ < [ } } } } } } } } } } | 1 2 3 @ ~ ; $   $   . ",
"4   . . * 5 } } } } } } } } } } } } } } } } } } 6 + @ * . .   7 ",
".   . 8 } } } } 9 0 a b c d e e d c b a 0 9 } } } } f .   .   . ",
"$ g } } } h i j e e k l m n o p p q r s t e u i h } } } v   w x ",
"y } } z A B k C D E F G H I J J J J J K L M N t B A z } } y @ . ",
"} } O P Q R S T U J V W X Y W X Z G J J J J `  ...s P O } } y @ ",
"} +.d @.#.$.J X %.&.E *.=.-.;.>.,.'.).!.~.{.].^.K /.(._.+.} } :.",
"<.e [.}.$.|.1.2.3.4.5.J J J I J J J J J J J 6.#.7.8.U 9.0.<.} } ",
"a.b.c.}.&.*.d.J J J J J J J J J J J J J J J J J $.e.|.f.g.h.i.} ",
"e j.k.l.}.I J J J J J J J J J J J J J J J J J J J J U m.k.n.o.} ",
"t p.q./.J J J J J J J J J J J J J J J J J J J J J J J J r.s.t.} ",
"u.,.J J J J J J J J J J J J J J J J J J J J J J J J J J v.w.d } ",
"u.r.J J J J J J J J J J J J J J J J J J J J J J J J J x.y.z.d } ",
"t A.B.J J J J J J J J J J J J J J J J J J J J J J J J y.C.N t.} ",
"e D.E.J J J J J J J J J J J J J J J J J J J J J J F.G.H.I.Q o.} ",
"a.t J.K.L.` J J J J J J J J J J J J J J J J J J M.N.O.P.Q.a.i.} ",
"<.e Q R.S.T.T.v.U J J J J J J J J J J J J U.X V.'.U.W.X.e <.} } ",
"} +.d t Y.6.J #.&.Z.`. +.+++@+#+@+F $+++|..+%+}.U &+*+d +.} } =+",
"} } O P e u.-+d.J U 6.>.;+>+=.L.L. +q.E.-.G J f.,+t P O } } '+)+",
"'+} } z A B e X.!+#+T ~+J J J J J J $.{+]+^+/+(+B A z } } '+)+)+",
")+_+} } } h i j e e k 0.:+<+D [+}+|+Q.0.Q e u i h } } } 1+)+)+)+",
")+)+)+2+} } } } 9 0 a b c d e e d c b a 0 9 } } } } 3+4+5+)+)+)+",
")+)+)+)+)+6+} } } } } } } } } } } } } } } } } } 6+)+)+7+8+)+)+)+",
")+)+)+)+)+)+)+)+9+0+} } } } } } } } } } 0+9+)+)+)+)+)+)+)+)+)+)+",
")+)+)+)+)+)+)+)+)+)+)+)+)+)+)+)+)+)+)+)+)+)+)+)+)+)+)+)+)+)+)+)+",
")+)+)+)+)+)+)+)+)+)+)+)+)+)+)+)+)+)+)+)+)+)+)+)+)+)+)+)+)+)+)+)+",
")+)+)+)+)+)+)+)+)+)+)+)+)+)+)+)+)+)+)+)+)+)+)+)+)+)+)+)+)+)+)+)+",
")+)+)+)+)+)+)+)+)+)+)+)+)+)+)+)+)+)+)+)+)+)+)+)+)+)+)+)+)+)+)+)+"};
