/* XPM */
static char * ball2_xpm[] = {
"32 32 177 2",
"  	c #5CE430",
". 	c #0D9300",
"+ 	c #0D8703",
"@ 	c #47B325",
"# 	c #095D04",
"$ 	c #2A7014",
"% 	c #022E01",
"& 	c #031201",
"* 	c #000000",
"= 	c #000800",
"- 	c #1A4D0A",
"; 	c #054602",
"> 	c #39931D",
", 	c #0C7304",
"' 	c #54D12C",
") 	c #0D8C02",
"! 	c #42A622",
"~ 	c #043802",
"{ 	c #020202",
"] 	c #090909",
"^ 	c #191919",
"/ 	c #313131",
"( 	c #3F3F3F",
"_ 	c #494949",
": 	c #404040",
"< 	c #303030",
"[ 	c #0C0C0C",
"} 	c #010101",
"| 	c #20590E",
"1 	c #0B6A05",
"2 	c #58D92E",
"3 	c #59DC2E",
"4 	c #0A6304",
"5 	c #072102",
"6 	c #202020",
"7 	c #606060",
"8 	c #8F8F8F",
"9 	c #B8B8B8",
"0 	c #DCDCDC",
"a 	c #EBEBEB",
"b 	c #F3F3F3",
"c 	c #F5F5F5",
"d 	c #F0F0F0",
"e 	c #CFCFCF",
"f 	c #787878",
"g 	c #171717",
"h 	c #001100",
"i 	c #3D9B1F",
"j 	c #0D8E01",
"k 	c #4EC429",
"l 	c #022B01",
"m 	c #060606",
"n 	c #535353",
"o 	c #ACACAC",
"p 	c #DADADA",
"q 	c #EFEFEF",
"r 	c #E4E4E4",
"s 	c #D0D0D0",
"t 	c #C4C4C4",
"u 	c #CACACA",
"v 	c #C9C9C9",
"w 	c #E9E9E9",
"x 	c #BABABA",
"y 	c #5B5B5B",
"z 	c #184809",
"A 	c #0D7E04",
"B 	c #48B425",
"C 	c #282828",
"D 	c #C5C5C5",
"E 	c #F4F4F4",
"F 	c #828282",
"G 	c #878787",
"H 	c #959595",
"I 	c #A7A7A7",
"J 	c #B9B9B9",
"K 	c #C6C6C6",
"L 	c #B1B1B1",
"M 	c #AAAAAA",
"N 	c #9B9B9B",
"O 	c #888888",
"P 	c #7D7D7D",
"Q 	c #7E7E7E",
"R 	c #9C9C9C",
"S 	c #C2C2C2",
"T 	c #7C7C7C",
"U 	c #0B1709",
"V 	c #0C7305",
"W 	c #4CBF28",
"X 	c #272727",
"Y 	c #D7D7D7",
"Z 	c #BDBDBD",
"` 	c #717171",
" .	c #808080",
"..	c #AEAEAE",
"+.	c #CDCDCD",
"@.	c #E5E5E5",
"#.	c #CECECE",
"$.	c #A1A1A1",
"%.	c #A6A6A6",
"&.	c #0E0E0E",
"*.	c #0D7A04",
"=.	c #58DB2E",
"-.	c #022401",
";.	c #0A0A0A",
">.	c #BFBFBF",
",.	c #E0E0E0",
"'.	c #C0C0C0",
").	c #8A8A8A",
"!.	c #153D0A",
"~.	c #0D8D01",
"{.	c #0B6905",
"].	c #454545",
"^.	c #ABABAB",
"/.	c #656565",
"(.	c #D8D8D8",
"_.	c #41A421",
":.	c #236110",
"<.	c #6F6F6F",
"[.	c #A4A4A4",
"}.	c #C8C8C8",
"|.	c #3A3A3A",
"1.	c #053C03",
"2.	c #040404",
"3.	c #B5B5B5",
"4.	c #383838",
"5.	c #E7E7E7",
"6.	c #A8A8A8",
"7.	c #2F2F2F",
"8.	c #8C8C8C",
"9.	c #F1F1F1",
"0.	c #A5A5A5",
"a.	c #2E2E2E",
"b.	c #A0A0A0",
"c.	c #ECECEC",
"d.	c #B0B0B0",
"e.	c #B4B4B4",
"f.	c #4C4C4C",
"g.	c #133D07",
"h.	c #6B6B6B",
"i.	c #8E8E8E",
"j.	c #AFAFAF",
"k.	c #DDDDDD",
"l.	c #767676",
"m.	c #A2A2A2",
"n.	c #929292",
"o.	c #121212",
"p.	c #909090",
"q.	c #8D8D8D",
"r.	c #E8E8E8",
"s.	c #9F9F9F",
"t.	c #A3A3A3",
"u.	c #030303",
"v.	c #373737",
"w.	c #7B7B7B",
"x.	c #969696",
"y.	c #A9A9A9",
"z.	c #B6B6B6",
"A.	c #BCBCBC",
"B.	c #BEBEBE",
"C.	c #B7B7B7",
"D.	c #ADADAD",
"E.	c #7A7A7A",
"F.	c #080808",
"G.	c #9E9E9E",
"H.	c #242424",
"I.	c #575757",
"J.	c #EEEEEE",
"K.	c #F2F2F2",
"L.	c #DEDEDE",
"M.	c #292929",
"N.	c #050505",
"O.	c #205B0E",
"P.	c #0D0D0D",
"Q.	c #2B2B2B",
"R.	c #444444",
"S.	c #555555",
"T.	c #1D1D1D",
"                                                                ",
"                                                                ",
"  .   .   .   .   .   .   .   .   .   .   .   .   .   .   .   . ",
".   .   .   .   .   .   .   .   .   .   .   .   .   .   .   .   ",
"  .   .   .   .   .   .   .   .   .   .   .   .   .   .   .   . ",
".   .   .   .   .   .   .   .   .   .   .   .   .   .   .   .   ",
"  .   .   .   .   + @ # $ % & * * = - ; > , ' .   .   .   .   . ",
".   .   .   ) ! ~ * * { ] ^ / ( _ _ : < [ } * | 1 2 .   .   .   ",
"  .   . 3 4 5 { 6 7 8 9 0 a b c c c c c d e f g } h i j   .   . ",
".   . k l m n o p q c r s t u s t v 0 c c c c w x y [ z A   .   ",
"  . B = C D E c t F G 8 H I J K L M N O P Q R 9 S d w T U V   . ",
". W * X Y E Z `  ...+.@.c c c b c c c c c c c #.D $.%.q L &.*.  ",
"=.-.;.>.Y G H ,.c c c c c c c c c c c c c c c c c E s Z '.).!.~.",
"{.* ].^./.Y b c c c c c c c c c c c c c c c c c c c c q (.^.X _.",
":.} <.[.w c c c c c c c c c c c c c c c c c c c c c c c c }.|.1.",
"= 2.M c c c c c c c c c c c c c c c c c c c c c c c c c c 3.4.& ",
"& 2.}.c c c c c c c c c c c c c c c c c c c c c c c c c 5.6.7.= ",
"1.} 8.9.c c c c c c c c c c c c c c c c c c c c c c c c 6.0.g :.",
"_.* a.b.c c c c c c c c c c c c c c c c c c c c c c c.d.e.f.m _.",
"=.g.} h.i.j.w c c c c c c c c c c c c c c c c c c k.l.m.n.o.g.=.",
"  W * m p.+.q.q.3.q c c c c c c c c c c c c r.t s.N r.t.u.* W   ",
"    B & } v.#.c D G w.x.^.y.z.A.B.A.9 C.z.Z y.D.Y q E.F.& B     ",
"      k z * 2.<.,.c q #.L G.s.I j.j.^.[.b.J 0 c '.H.} z k       ",
"        3 i 5 * u.I.B.p J.c c c c c c E K.L.).M.N.5 i 3         ",
"            2 ! O.* * { P.Q.R.7 S.|.T.o.P.m * | ! 2             ",
"                  ' @ > $ - & * * & - $ > @ '                   ",
"                                                                ",
"                                                                ",
"                                                                ",
"                                                                ",
"                                                                ",
"                                                                "};
