/* XPM */
static char * exit2_xpm[] = {
"32 32 83 1",
" 	c #5CE430",
".	c #99EB8C",
"+	c #FEFFFE",
"@	c #FFFFFF",
"#	c #F9FEF8",
"$	c #76E65D",
"%	c #5DE433",
"&	c #EFFBEE",
"*	c #BCF0B5",
"=	c #0D9300",
"-	c #B5EFAC",
";	c #F3FCF2",
">	c #2A9626",
",	c #6EE651",
"'	c #F9FBF9",
")	c #8DB88C",
"!	c #C6D8C5",
"~	c #E0E9DF",
"{	c #6CA96A",
"]	c #FDFEFC",
"^	c #FDFDFD",
"/	c #80E86B",
"(	c #E5F9E2",
"_	c #D1F5CD",
":	c #9DEB90",
"<	c #FEFEFE",
"[	c #4D9E4B",
"}	c #60E439",
"|	c #F1F5F1",
"1	c #A9C7A8",
"2	c #B5CEB5",
"3	c #EEF3EE",
"4	c #519F4F",
"5	c #FAFEF9",
"6	c #96EA88",
"7	c #D7F6D3",
"8	c #DEF7DB",
"9	c #8CE97B",
"0	c #FCFEFC",
"a	c #5FA45D",
"b	c #E7EEE7",
"c	c #C2D6C2",
"d	c #99BE98",
"e	c #F5F8F5",
"f	c #69E54A",
"g	c #F6FDF5",
"h	c #AFEEA6",
"i	c #C9F3C4",
"j	c #EAFAE8",
"k	c #FBFCFB",
"l	c #74AC73",
"m	c #E3F8E0",
"n	c #DBF7D7",
"o	c #92EA82",
"p	c #FBFEFB",
"q	c #74E65A",
"r	c #ECFBEB",
"s	c #C2F2BB",
"t	c #B2EFA9",
"u	c #F5FDF4",
"v	c #64E541",
"w	c #6AE54C",
"x	c #F7FDF7",
"y	c #A4EC98",
"z	c #CFF4CA",
"A	c #E4F9E2",
"B	c #83E86F",
"C	c #FDFFFD",
"D	c #86E874",
"E	c #E0F8DD",
"F	c #D2F5CE",
"G	c #FAFEFA",
"H	c #5FE436",
"I	c #F1FCEF",
"J	c #BBF0B4",
"K	c #F1FCF0",
"L	c #62E43C",
"M	c #6FE653",
"N	c #F9FEF9",
"O	c #A0EC94",
"P	c #D3F5CF",
"Q	c #E1F8DE",
"R	c #86E873",
"                     .+@@@@#$   ",
"                    %&@@@@@*    ",
" = = = = = = = = = =-@@@@@;> = =",
"= = = = = = = = = =,'@@@@+) = = ",
" = = = = = = = = = !@@@@@~ = = =",
"= = = = = = = = = {]@@@@^/= = = ",
" = = = = = = = = =(@@@@@_= = = =",
"= = = = = = = = =:<@@@@#[ = = = ",
" = = = = = = = =}|@@@@@1 = = = =",
"= = = = = = = = 2@@@@@3 = = = = ",
" = = = = = = = 45@@@@@6= = = = =",
"= = = = = = = =7@@@@@8= = = = = ",
" = = = = = = =9<@@@@0a = = = = =",
"= = = = = = = b@@@@@c = = = = = ",
" = = = = = = d@@@@@ef= = = = = =",
"= = = = = = >g@@@@@h= = = = = = ",
" = = = = = =i@@@@@j= = = = = = =",
"= = = = = =.k@@@@+l = = = = = = ",
"           m@@@@@n              ",
"          o@@@@@pq              ",
"          r@@@@@s               ",
"         t@@@@@uv               ",
"        wx@@@@+y                ",
"        z@@@@@A                 ",
"       B]@@@@CD                 ",
"       E@@@@@F                  ",
"      .@@@@@G$                  ",
"     HI@@@@@*                   ",
"     J@@@@@KL                   ",
"    MN@@@@@O                    ",
"    P@@@@@Q                     ",
"   R@@@@@]B                     "};
