/* XPM */
static char * exit_xpm[] = {
"32 32 158 2",
"  	c #47D98E",
". 	c #47D990",
"+ 	c #47DA90",
"@ 	c #47DA91",
"# 	c #47D88F",
"$ 	c #47D991",
"% 	c #DBF4E4",
"& 	c #FFFFFF",
"* 	c #D3F2DE",
"= 	c #47DB91",
"- 	c #47D98F",
"; 	c #47DA93",
"> 	c #92E4B3",
", 	c #FEFFFE",
"' 	c #F9FDFA",
") 	c #69DC9D",
"! 	c #36C692",
"~ 	c #3FCE93",
"{ 	c #EFF9F3",
"] 	c #B7E9CB",
"^ 	c #3ACA91",
"/ 	c #AEE2C6",
"( 	c #F2F9F5",
"_ 	c #44CA95",
": 	c #47DB94",
"< 	c #5EDA99",
"[ 	c #FAFDFB",
"} 	c #96E2B6",
"| 	c #42D491",
"1 	c #47DA94",
"2 	c #CAEFD8",
"3 	c #E2F6E9",
"4 	c #47DB93",
"5 	c #7BDFA6",
"6 	c #FDFEFD",
"7 	c #75DEA2",
"8 	c #47D88E",
"9 	c #46D991",
"0 	c #43D590",
"a 	c #E4F6EA",
"b 	c #CFF1DB",
"c 	c #47DA92",
"d 	c #39C992",
"e 	c #41D28F",
"f 	c #42D391",
"g 	c #3ACB92",
"h 	c #3BCC91",
"i 	c #41D391",
"j 	c #39C991",
"k 	c #43D591",
"l 	c #96E4B6",
"m 	c #65DC9B",
"n 	c #47D88D",
"o 	c #3ACB91",
"p 	c #38C992",
"q 	c #3FD091",
"r 	c #3ED091",
"s 	c #40D291",
"t 	c #4DD990",
"u 	c #F2FBF5",
"v 	c #AFE9C6",
"w 	c #44D690",
"x 	c #43D490",
"y 	c #45D691",
"z 	c #BBECCD",
"A 	c #EFFAF3",
"B 	c #48D990",
"C 	c #48DA90",
"D 	c #48DA8E",
"E 	c #48DA91",
"F 	c #49DA90",
"G 	c #68DD9D",
"H 	c #8EE2B1",
"I 	c #4EDD90",
"J 	c #50DF90",
"K 	c #51DF90",
"L 	c #52E090",
"M 	c #53E190",
"N 	c #51E090",
"O 	c #52E08E",
"P 	c #55E28F",
"Q 	c #57E38F",
"R 	c #D6F6DF",
"S 	c #DDF6E5",
"T 	c #4FDD8E",
"U 	c #72F48E",
"V 	c #73F48E",
"W 	c #74F58F",
"X 	c #74F58E",
"Y 	c #75F68E",
"Z 	c #75F58E",
"` 	c #99F8A9",
" .	c #FCFFFC",
"..	c #8DF6A0",
"+.	c #7CFA8E",
"@.	c #ECFEEE",
"#.	c #D0FDD5",
"$.	c #B3FCBB",
"%.	c #F7FFF8",
"&.	c #85FA95",
"*.	c #80FA91",
"=.	c #BAFCC1",
"-.	c #EDFEEE",
";.	c #A8FBB2",
">.	c #9DFBA9",
",.	c #E6FEE9",
"'.	c #DFFDE2",
").	c #A2FBAD",
"!.	c #FBFFFC",
"~.	c #8CFA9A",
"{.	c #EFFEF0",
"].	c #C9FCCF",
"^.	c #BCFCC3",
"/.	c #F6FFF7",
"(.	c #81FA92",
"_.	c #F8FFF9",
":.	c #B0FBB9",
"<.	c #7AF98E",
"[.	c #7BF98E",
"}.	c #D5FDD9",
"|.	c #E7FEEA",
"1.	c #77F78E",
"2.	c #52E190",
"3.	c #5BE690",
"4.	c #6DF18F",
"5.	c #5CE790",
"6.	c #4EDE91",
"7.	c #64EB8F",
"8.	c #56E390",
"9.	c #49DB91",
"0.	c #5AE590",
"a.	c #5AE690",
"b.	c #72F48F",
"c.	c #97FBA3",
"d.	c #FDFFFD",
"e.	c #99FBA6",
"f.	c #59E590",
"g.	c #6CF08F",
"h.	c #58E490",
"i.	c #64EC8F",
"j.	c #60E990",
"k.	c #5DE790",
"l.	c #E4FEE6",
"m.	c #D8FDDB",
"n.	c #73F58E",
"o.	c #70F28F",
"p.	c #FBFFFB",
"q.	c #8DFA9C",
"r.	c #7EFA8F",
"s.	c #F2FEF3",
"t.	c #C5FCCA",
"u.	c #C4FCCA",
"v.	c #F3FEF4",
"w.	c #89FA98",
"x.	c #FAFFFA",
"y.	c #AEFBB7",
"z.	c #D8FDDC",
"A.	c #E5FEE7",
"  . . . + @ . @ # .   . $ .         . $ . % & & & & & * . . . $ ",
"  . =   .   - ; . @ . + @ + @     @ + @ > , & & & & ' )   = . = ",
"$ @ + . @ . . + . ;   . @ .   . .   ! ~ { & & & & & ] @ . + @ . ",
"  . . ; . @ . @ + . ;     . . . . . ^ / & & & & & ( _ . ; . . . ",
".   $   $ @ . @ : . ; @ . . . . . . < [ & & & & , } | $   $   . ",
"1   . . ; @ + +   . . #   . ; . . ; 2 & & & & & 3 + @ ; . .   4 ",
".   .   . . .   . @ @ .     . @ @ 5 6 & & & & 6 7 . . .   .   . ",
"$ 8   @     + 9     8 0 0 @ . . . a & & & & & b @ +     @   8 c ",
". @ . 0 d e f g h i h j h k   . l , & & & & ' m @ .   . + . @ . ",
"n . @ $ o g p | q o | r d s . t u & & & & & v $ + . @ . $ @ . @ ",
"$ @ + . @ . w . . ; . @ x y . z & & & & & A ; . . . . @ . + @ . ",
". B C C D C E C B . . E C F G [ & & & & & H . B C E C D C C B   ",
"I J K L L L M L K K N O P Q R & & & & & S N K K L M L L L K J T ",
"U V W X X Y X X X X Z Z Z ` , & & & &  ...Z X X X X Y X X W V U ",
"+.+.+.+.+.+.+.+.+.+.+.+.+.@.& & & & & #.+.+.+.+.+.+.+.+.+.+.+.+.",
"+.+.+.+.+.+.+.+.+.+.+.+.$.& & & & & %.&.+.+.+.+.+.+.+.+.+.+.+.+.",
"+.+.+.+.+.+.+.+.+.+.+.*.%.& & & & & =.+.+.+.+.+.+.+.+.+.+.+.+.+.",
"+.+.+.+.+.+.+.+.+.+.+.#.& & & & & -.+.+.+.+.+.+.+.+.+.+.+.+.+.+.",
"+.+.+.+.+.+.+.+.+.+.;. .& & & & , >.+.+.+.+.+.+.+.+.+.+.+.+.+.+.",
"+.+.+.+.+.+.+.+.+.+.,.& & & & & '.+.+.+.+.+.+.+.+.+.+.+.+.+.+.+.",
"+.+.+.+.+.+.+.+.+.).& & & & & !.~.+.+.+.+.+.+.+.+.+.+.+.+.+.+.+.",
"+.+.+.+.+.+.+.+.+.{.& & & & & ].+.+.+.+.+.+.+.+.+.+.+.+.+.+.+.+.",
"+.+.+.+.+.+.+.+.^.& & & & & /.(.+.+.+.+.+.+.+.+.+.+.+.+.+.+.+.+.",
"+.+.+.+.+.+.+.&._.& & & & , :.+.+.+.<.+.+.[.[.+.+.+.+.+.+.+.+.+.",
"+.+.+.+.+.+.+.}.& & & & & |.+.+.+.1.2.3.4.5.6.7.8.9.0.a.b.+.+.+.",
"+.+.+.+.+.+.c.d.& & & & , e.+.+.+.<.f.g.M h.i.3.j.k.g.M Y +.+.+.",
"+.+.+.+.+.+.l.& & & & & m.+.+.+.+.+.n.[.+.+.+.+.+.+.+.o.[.+.+.+.",
"+.+.+.+.+.;.& & & & & p.q.+.+.+.+.+.+.+.+.+.+.+.+.+.+.+.+.+.+.+.",
"+.+.+.+.r.s.& & & & & t.+.+.+.+.+.+.+.+.+.+.+.+.+.+.+.+.+.+.+.+.",
"+.+.+.+.u.& & & & & v.*.+.+.+.+.+.+.+.+.+.+.+.+.+.+.+.+.+.+.+.+.",
"+.+.+.w.x.& & & & & y.+.+.+.+.+.+.+.+.+.+.+.+.+.+.+.+.+.+.+.+.+.",
"+.+.+.z.& & & & & A.+.+.+.+.+.+.+.+.+.+.+.+.+.+.+.+.+.+.+.+.+.+."};
