/* XPM */
static char * player2_xpm[] = {
"32 32 438 2",
"  	c #5CE430",
". 	c #59DC2E",
"+ 	c #51CA2A",
"@ 	c #40A122",
"# 	c #29631A",
"$ 	c #193512",
"% 	c #16320F",
"& 	c #1B3F12",
"* 	c #245418",
"= 	c #327A1E",
"- 	c #4BBD27",
"; 	c #59DD2E",
"> 	c #0D9300",
", 	c #0C8B00",
"' 	c #3E9E21",
") 	c #154813",
"! 	c #14230F",
"~ 	c #0A0907",
"{ 	c #0C0B0A",
"] 	c #0D0C0B",
"^ 	c #0E0D0B",
"/ 	c #131210",
"( 	c #151413",
"_ 	c #11100F",
": 	c #0C130A",
"< 	c #3C9720",
"[ 	c #0D9100",
"} 	c #5BE330",
"| 	c #0C7E02",
"1 	c #2A6B17",
"2 	c #0A1509",
"3 	c #0B130B",
"4 	c #2D2D2D",
"5 	c #646464",
"6 	c #707070",
"7 	c #727272",
"8 	c #727171",
"9 	c #6F6F6F",
"0 	c #706F6F",
"a 	c #6D6C6B",
"b 	c #2D2C2A",
"c 	c #0A0A09",
"d 	c #162512",
"e 	c #0D8E00",
"f 	c #0C5C09",
"g 	c #14330B",
"h 	c #162614",
"i 	c #4F534F",
"j 	c #6E6D6D",
"k 	c #737373",
"l 	c #5C5C5C",
"m 	c #0E0E0E",
"n 	c #0F190C",
"o 	c #0E7D05",
"p 	c #0D6707",
"q 	c #10240B",
"r 	c #1F291D",
"s 	c #696A69",
"t 	c #616161",
"u 	c #070605",
"v 	c #152C0F",
"w 	c #0C8D00",
"x 	c #0B8700",
"y 	c #0F210A",
"z 	c #1E231C",
"A 	c #757473",
"B 	c #484747",
"C 	c #2F741A",
"D 	c #0D9200",
"E 	c #2F731D",
"F 	c #0B0D0A",
"G 	c #646463",
"H 	c #1A1A19",
"I 	c #071005",
"J 	c #52CD2A",
"K 	c #53CF2B",
"L 	c #111711",
"M 	c #2C2C2C",
"N 	c #6B6B6B",
"O 	c #6F6E6E",
"P 	c #6C6A6A",
"Q 	c #737272",
"R 	c #767676",
"S 	c #747474",
"T 	c #60605F",
"U 	c #0A0908",
"V 	c #0A3A08",
"W 	c #5BE22F",
"X 	c #176015",
"Y 	c #0B0A0A",
"Z 	c #5D5D5C",
"` 	c #494948",
" .	c #232221",
"..	c #1E1A18",
"+.	c #26201B",
"@.	c #231B16",
"#.	c #1B1410",
"$.	c #1D1511",
"%.	c #241A15",
"&.	c #241B16",
"*.	c #211A17",
"=.	c #1E1B18",
"-.	c #1B1817",
";.	c #363433",
">.	c #313130",
",.	c #080F05",
"'.	c #0B8500",
").	c #0D9000",
"!.	c #214519",
"~.	c #151516",
"{.	c #4C4B4B",
"].	c #22201F",
"^.	c #2B231F",
"/.	c #312924",
"(.	c #372A24",
"_.	c #7B5746",
":.	c #B78268",
"<.	c #AC7A61",
"[.	c #926752",
"}.	c #715041",
"|.	c #44342C",
"1.	c #2A231F",
"2.	c #2F2A25",
"3.	c #27211E",
"4.	c #292626",
"5.	c #5F5F5E",
"6.	c #666666",
"7.	c #32801A",
"8.	c #57D82D",
"9.	c #0C110B",
"0.	c #3D3C3C",
"a.	c #1B1917",
"b.	c #6F6865",
"c.	c #1E1C1A",
"d.	c #201E1C",
"e.	c #CDCBCB",
"f.	c #837974",
"g.	c #B58169",
"h.	c #F6B08E",
"i.	c #BD866C",
"j.	c #322A24",
"k.	c #504E4C",
"l.	c #242220",
"m.	c #696664",
"n.	c #282320",
"o.	c #1D1B1A",
"p.	c #636262",
"q.	c #717070",
"r.	c #12110F",
"s.	c #0A1008",
"t.	c #5ADF2F",
"u.	c #0E8404",
"v.	c #0F140E",
"w.	c #49413C",
"x.	c #47352C",
"y.	c #EFECEB",
"z.	c #CAC9C8",
"A.	c #D3D2D2",
"B.	c #F8F7F7",
"C.	c #ADA19A",
"D.	c #926854",
"E.	c #D09478",
"F.	c #7E5947",
"G.	c #E5D5CE",
"H.	c #F9F7F7",
"I.	c #C6C5C5",
"J.	c #DBDADA",
"K.	c #F4F2F2",
"L.	c #B8AEAA",
"M.	c #312621",
"N.	c #2F2D2B",
"O.	c #6D6C6C",
"P.	c #6E6E6E",
"Q.	c #6D6D6D",
"R.	c #3F3F3E",
"S.	c #090807",
"T.	c #0D8503",
"U.	c #4DBF2A",
"V.	c #171916",
"W.	c #46342C",
"X.	c #755443",
"Y.	c #8E6855",
"Z.	c #9F8477",
"`.	c #8F7E77",
" +	c #927567",
".+	c #805C4B",
"++	c #E3A383",
"@+	c #EEAB8A",
"#+	c #805B49",
"$+	c #7A5948",
"%+	c #81736B",
"&+	c #5F5956",
"*+	c #635E5B",
"=+	c #71635D",
"-+	c #B28670",
";+	c #593F32",
">+	c #211B18",
",+	c #5B5B5B",
"'+	c #646363",
")+	c #4CB52E",
"!+	c #15730F",
"~+	c #141110",
"{+	c #4C3A31",
"]+	c #D69B7D",
"^+	c #DC9E7F",
"/+	c #EFAB8A",
"(+	c #F4AF8D",
"_+	c #F3AE8D",
":+	c #F5B08E",
"<+	c #E3A384",
"[+	c #BE8A70",
"}+	c #CA9276",
"|+	c #E0A182",
"1+	c #F0AC8B",
"2+	c #F7B18F",
"3+	c #D7997C",
"4+	c #B07D65",
"5+	c #584136",
"6+	c #2A2928",
"7+	c #717171",
"8+	c #666565",
"9+	c #181B15",
"0+	c #1D6119",
"a+	c #5AE02F",
"b+	c #3A8C23",
"c+	c #0C0A08",
"d+	c #534036",
"e+	c #F2AD8C",
"f+	c #EDAA89",
"g+	c #F1AD8C",
"h+	c #ECA989",
"i+	c #EAA888",
"j+	c #1B1916",
"k+	c #616060",
"l+	c #20211C",
"m+	c #2A6619",
"n+	c #0D8F01",
"o+	c #0E2C0B",
"p+	c #151210",
"q+	c #D09579",
"r+	c #F6B08F",
"s+	c #E7A686",
"t+	c #B17F67",
"u+	c #B07E65",
"v+	c #DFA081",
"w+	c #E4A384",
"x+	c #AE7C64",
"y+	c #785948",
"z+	c #E1A283",
"A+	c #362E28",
"B+	c #5F5D5C",
"C+	c #242820",
"D+	c #10390C",
"E+	c #102A08",
"F+	c #1C1816",
"G+	c #E3A687",
"H+	c #BA866C",
"I+	c #C78F73",
"J+	c #795847",
"K+	c #B3826A",
"L+	c #7B5C4C",
"M+	c #474340",
"N+	c #1A1C17",
"O+	c #296916",
"P+	c #0E2606",
"Q+	c #2E2C26",
"R+	c #C6957D",
"S+	c #805D4B",
"T+	c #9E715C",
"U+	c #7D5B4B",
"V+	c #B7856C",
"W+	c #A97961",
"X+	c #8B634F",
"Y+	c #BA886F",
"Z+	c #3F3B37",
"`+	c #6D6D6C",
" @	c #525151",
".@	c #162112",
"+@	c #3A941E",
"@@	c #102D07",
"#@	c #2A2A20",
"$@	c #D29F87",
"%@	c #E1A182",
"&@	c #684B3C",
"*@	c #271C16",
"=@	c #34241C",
"-@	c #37271E",
";@	c #3F2E26",
">@	c #63493B",
",@	c #7B5846",
"'@	c #A87860",
")@	c #CE9579",
"!@	c #3D3834",
"~@	c #1C1E19",
"{@	c #0D1209",
"]@	c #46B123",
"^@	c #1C4D0D",
"/@	c #1A2C14",
"(@	c #987767",
"_@	c #291C15",
":@	c #443025",
"<@	c #E9A787",
"[@	c #39271F",
"}@	c #E6A585",
"|@	c #AE7F68",
"1@	c #6F6F6E",
"2@	c #4B4A4A",
"3@	c #161912",
"4@	c #0E2408",
"5@	c #57D92D",
"6@	c #40A420",
"7@	c #0C1F06",
"8@	c #463F36",
"9@	c #EFAC8B",
"0@	c #B88369",
"a@	c #815B49",
"b@	c #916753",
"c@	c #765443",
"d@	c #7A5745",
"e@	c #F2AF8E",
"f@	c #675145",
"g@	c #413E3A",
"h@	c #6C6C6C",
"i@	c #212622",
"j@	c #0C1209",
"k@	c #19430B",
"l@	c #59DE2E",
"m@	c #17410A",
"n@	c #192E12",
"o@	c #A07865",
"p@	c #C38C71",
"q@	c #EAA887",
"r@	c #946A55",
"s@	c #684A3B",
"t@	c #CF9477",
"u@	c #5A4033",
"v@	c #8A624F",
"w@	c #F1AE8E",
"x@	c #F3AE8E",
"y@	c #3C3631",
"z@	c #514E4C",
"A@	c #545756",
"B@	c #171C17",
"C@	c #060E03",
"D@	c #41A521",
"E@	c #4CBF27",
"F@	c #1E520E",
"G@	c #222318",
"H@	c #443027",
"I@	c #936854",
"J@	c #563D30",
"K@	c #775544",
"L@	c #865F4D",
"M@	c #AF7D64",
"N@	c #F2AE8E",
"O@	c #AA7F6A",
"P@	c #342F2B",
"Q@	c #646364",
"R@	c #070E04",
"S@	c #20560E",
"T@	c #47B524",
"U@	c #0F2109",
"V@	c #2E361E",
"W@	c #E6A485",
"X@	c #AF7C64",
"Y@	c #C18A6F",
"Z@	c #A3745D",
"`@	c #835D4A",
" #	c #BE886E",
".#	c #E9A888",
"+#	c #6C5447",
"@#	c #362F2A",
"##	c #42413F",
"$#	c #0C0C0B",
"%#	c #060504",
"&#	c #123209",
"*#	c #1D500D",
"=#	c #0E0C0A",
"-#	c #C79B78",
";#	c #9A6D58",
">#	c #D09578",
",#	c #BD876D",
"'#	c #C89176",
")#	c #2D2825",
"!#	c #2D2924",
"~#	c #070604",
"{#	c #265F14",
"]#	c #56D62C",
"^#	c #58DA2D",
"/#	c #0A1606",
"(#	c #15110F",
"_#	c #CA9878",
":#	c #F4B08E",
"<#	c #45372E",
"[#	c #2C2B26",
"}#	c #0E130A",
"|#	c #080605",
"1#	c #2D7019",
"2#	c #5BE12F",
"3#	c #5CE330",
"4#	c #4ABA25",
"5#	c #0B1209",
"6#	c #3D3A2B",
"7#	c #78664D",
"8#	c #A58065",
"9#	c #CC9879",
"0#	c #E5A585",
"a#	c #EAA988",
"b#	c #A87E67",
"c#	c #434036",
"d#	c #1A2517",
"e#	c #1A2E13",
"f#	c #202319",
"g#	c #337320",
"h#	c #1B4A0D",
"i#	c #091505",
"j#	c #0B1108",
"k#	c #10150C",
"l#	c #161911",
"m#	c #181614",
"n#	c #1B1A18",
"o#	c #1D1917",
"p#	c #1A1614",
"q#	c #0D0B0A",
"r#	c #151810",
"s#	c #2B421F",
"t#	c #48B426",
"u#	c #52CE2B",
"v#	c #3C9520",
"w#	c #265B16",
"x#	c #172C0F",
"y#	c #14260D",
"z#	c #193210",
"A#	c #1E3415",
"B#	c #254419",
"C#	c #2F661E",
"D#	c #357921",
"E#	c #4EC328",
"                                                                ",
"                      . + @ # $ % & * = - ;                     ",
"  >   >   >   >   , ' ) ! ~ { ] ^ ] / ( _ : < [   >   >   >   > ",
">   >   >   > } | 1 2 3 4 5 6 7 8 9 8 0 a b c d e   >   >   >   ",
"  >   >   >   f g h i j 7 7 7 7 7 7 7 7 7 k l m n o   >   >   > ",
">   >   >   p q r s 8 7 7 7 7 7 7 7 7 7 7 7 7 t u v w   >   >   ",
"  >   >   x y z A 7 7 7 7 7 7 7 7 7 7 7 7 7 7 7 B u C D   >   > ",
">   >   [ E F G 7 7 7 7 7 7 7 7 7 7 7 7 7 7 7 7 7 H I J >   >   ",
"  >   > K L M N k k O 0 P 9 Q R S k 7 7 7 7 7 7 7 T U V W >   D ",
">   >   X Y Z `  ...+.@.#.$.%.&.*.=.-.;.5 7 7 7 7 7 >.,.'.  >   ",
"  >   ).!.~.{.].^./.(._.:.<.[.}.|.1.2.3.4.5.7 7 7 7 6.u 7.D   > ",
">   > 8.9.0.a.b.c.d.e.f.g.h.i.j.k.c.l.m.n.o.p.7 7 q.q.r.s.t.>   ",
"  >   u.v.w.x.y.z.A.B.C.D.E.F.G.H.I.J.K.L.M.N.O.P.Q.6 R.S.T.  > ",
">   > U.V.W.X.Y.Z.`. +.+++@+#+$+%+&+*+=+-+;+>+,+6 7 7 '+U )+>   ",
"  >   !+~+{+]+^+/+(+(+_+:+<+[+}+|+1+2+3+X.4+5+6+7+7 7 8+9+0+a+> ",
">   > b+c+d+@+2+2+(+e+1+/+1+/+/+f+/+g+h+_+2+i+j+9 7 7 k+l+m+n+  ",
"  >   o+p+q+r+2+f+s+t+u+v+/+w+x+y+z+/+:+2+2+2+A+B+7 7 Z C+D+a+> ",
">   > E+F+G+2+2+/+H+I+(+2+2+h.1+J+K+1+_+2+2+2+L+M+6 7 ,+N+O+[   ",
"      P+Q+R+2+2+g+S+T+2+2+2+2+h.U+V+_+W+;+X+2+Y+Z+`+7  @.@+@}   ",
"      @@#@$@2+2+%@@+&@*@=@=@-@;@>@e+e+,@'@1+2+)@!@a 7 ~@{@]@    ",
"      ^@/@(@(+_@:@e+:+<@f+f+f+@+/+g+g+[@}@2+2+|@!@1@2@3@4@5@    ",
"      6@7@8@9@0@a@b@:+:+_+1+e+e+g+g+c@d@h.e@:+f@g@h@i@j@k@W     ",
"      l@m@n@o@p@q@r@s@h+h+w+/+<@t@u@v@h.2+w@x@y@z@A@B@C@D@      ",
"        E@F@G@H@}@2+e+I@J@u@s@K@L@M@_+2+2+N@O@P@Q@i@R@S@W       ",
"          T@U@V@2+2+2+2+2+W@X@Y@Z@`@ #2+.#+#@###$#%#&#5@        ",
"            *#=#-#2+2+2+2+2+;#>#,#(+2+2+'#)#!#_ ~#{#]#          ",
"            ^#/#(#_#:#2+2+h.2+2+2+2+2+<@<#[#}#|#1#2#            ",
"            3#4#@@5#6#7#8#9#0#g+:+a#b#c#d#e#f#g#t.              ",
"                l@h#i#j#k#l#m#n#o#p#~+q#r#s#t#a+                ",
"                  W u#v#w#x#y#z#A#B#C#D#E#W                     ",
"                                                                ",
"                                                                "};
