/* XPM */
static char * player_xpm[] = {
"32 32 477 2",
"  	c #47D98E",
". 	c #47D990",
"+ 	c #47DA90",
"@ 	c #47DA91",
"# 	c #47D88F",
"$ 	c #47D991",
"% 	c #47DB91",
"& 	c #47D98F",
"* 	c #47DA93",
"= 	c #44D18B",
"- 	c #3EC17F",
"; 	c #319A66",
"> 	c #215E3E",
", 	c #163322",
"' 	c #132F1F",
") 	c #173C27",
"! 	c #1F5035",
"~ 	c #28744D",
"{ 	c #3AB477",
"] 	c #44D38B",
"^ 	c #43CD88",
"/ 	c #309765",
"( 	c #266A45",
"_ 	c #122117",
": 	c #0A0907",
"< 	c #0C0B0A",
"[ 	c #0D0C0B",
"} 	c #0E0D0B",
"| 	c #131210",
"1 	c #151413",
"2 	c #11100F",
"3 	c #0E1B13",
"4 	c #27865F",
"5 	c #3DCC90",
"6 	c #41D291",
"7 	c #3ACA91",
"8 	c #3FD091",
"9 	c #44D690",
"0 	c #3CBC7D",
"a 	c #216642",
"b 	c #0D1F14",
"c 	c #0B120E",
"d 	c #2D2D2D",
"e 	c #646464",
"f 	c #707070",
"g 	c #727272",
"h 	c #727171",
"i 	c #6F6F6F",
"j 	c #706F6F",
"k 	c #6D6C6B",
"l 	c #2D2C2A",
"m 	c #0A0A09",
"n 	c #14211A",
"o 	c #38C58D",
"p 	c #3FD191",
"q 	c #38C892",
"r 	c #38C992",
"s 	c #2C895A",
"t 	c #10301E",
"u 	c #1A3525",
"v 	c #4F5350",
"w 	c #6E6E6D",
"x 	c #737373",
"y 	c #5C5C5C",
"z 	c #0E0E0E",
"A 	c #0E1811",
"B 	c #3CBA7C",
"C 	c #42D491",
"D 	c #47DA94",
"E 	c #0E2316",
"F 	c #213528",
"G 	c #696A69",
"H 	c #616161",
"I 	c #070605",
"J 	c #132A1C",
"K 	c #44D18A",
"L 	c #47DB93",
"M 	c #41C784",
"N 	c #1F2A22",
"O 	c #757473",
"P 	c #484747",
"Q 	c #256E48",
"R 	c #47D88E",
"S 	c #46D78F",
"T 	c #266D47",
"U 	c #0C110D",
"V 	c #646463",
"W 	c #1A1A19",
"X 	c #091A0F",
"Y 	c #3FC37F",
"Z 	c #47DA92",
"` 	c #3CC283",
" .	c #121D18",
"..	c #2C2C2C",
"+.	c #6B6B6B",
"@.	c #6F6E6E",
"#.	c #6C6A6A",
"$.	c #737272",
"%.	c #767676",
"&.	c #747474",
"*.	c #60605F",
"=.	c #0A0908",
"-.	c #1B5838",
";.	c #47D88D",
">.	c #318D5E",
",.	c #0B0A0A",
"'.	c #5D5D5C",
").	c #494948",
"!.	c #232221",
"~.	c #1E1A18",
"{.	c #26201B",
"].	c #231B16",
"^.	c #1B1410",
"/.	c #1D1511",
"(.	c #241A15",
"_.	c #241B16",
":.	c #211A17",
"<.	c #1E1B18",
"[.	c #1B1817",
"}.	c #363433",
"|.	c #313130",
"1.	c #080E09",
"2.	c #40C582",
"3.	c #46D68D",
"4.	c #1D422D",
"5.	c #151516",
"6.	c #4C4B4B",
"7.	c #22201F",
"8.	c #2B231F",
"9.	c #312924",
"0.	c #372A24",
"a.	c #7B5746",
"b.	c #B78268",
"c.	c #AC7A61",
"d.	c #926752",
"e.	c #715041",
"f.	c #44342C",
"g.	c #2A231F",
"h.	c #2F2A25",
"i.	c #27211E",
"j.	c #292626",
"k.	c #5F5F5E",
"l.	c #666666",
"m.	c #277A50",
"n.	c #48D990",
"o.	c #44CF88",
"p.	c #0D1711",
"q.	c #3D3C3C",
"r.	c #1B1917",
"s.	c #6F6865",
"t.	c #1E1C1A",
"u.	c #201E1C",
"v.	c #CDCBCB",
"w.	c #837974",
"x.	c #B58169",
"y.	c #F6B08E",
"z.	c #BD866C",
"A.	c #322A24",
"B.	c #504E4C",
"C.	c #242220",
"D.	c #696664",
"E.	c #282320",
"F.	c #1D1B1A",
"G.	c #636262",
"H.	c #717070",
"I.	c #12110F",
"J.	c #0C160E",
"K.	c #46D58D",
"L.	c #48DA90",
"M.	c #4EDD90",
"N.	c #50DF90",
"O.	c #49C981",
"P.	c #0F1411",
"Q.	c #49413C",
"R.	c #47352C",
"S.	c #EFECEB",
"T.	c #CAC9C8",
"U.	c #D3D2D2",
"V.	c #F8F7F7",
"W.	c #ADA19A",
"X.	c #926854",
"Y.	c #D09478",
"Z.	c #7E5947",
"`.	c #E5D5CE",
" +	c #F9F7F7",
".+	c #C6C5C5",
"++	c #DBDADA",
"@+	c #F4F2F2",
"#+	c #B8AEAA",
"$+	c #312621",
"%+	c #2F2D2B",
"&+	c #6D6C6C",
"*+	c #6E6E6E",
"=+	c #6D6D6D",
"-+	c #3F3F3E",
";+	c #090807",
">+	c #4ACB83",
",+	c #51DF90",
"'+	c #4FDD8E",
")+	c #72F48E",
"!+	c #73F48E",
"~+	c #61CE78",
"{+	c #181D18",
"]+	c #46342C",
"^+	c #755443",
"/+	c #8E6855",
"(+	c #9F8477",
"_+	c #8F7E77",
":+	c #927567",
"<+	c #805C4B",
"[+	c #E3A383",
"}+	c #EEAB8A",
"|+	c #805B49",
"1+	c #7A5948",
"2+	c #81736B",
"3+	c #5F5956",
"4+	c #635E5B",
"5+	c #71635D",
"6+	c #B28670",
"7+	c #593F32",
"8+	c #211B18",
"9+	c #5B5B5B",
"0+	c #646363",
"a+	c #5EC372",
"b+	c #74F58F",
"c+	c #7CFA8E",
"d+	c #61C46F",
"e+	c #141110",
"f+	c #4C3A31",
"g+	c #D69B7D",
"h+	c #DC9E7F",
"i+	c #EFAB8A",
"j+	c #F4AF8D",
"k+	c #F3AE8D",
"l+	c #F5B08E",
"m+	c #E3A384",
"n+	c #BE8A70",
"o+	c #CA9276",
"p+	c #E0A182",
"q+	c #F0AC8B",
"r+	c #F7B18F",
"s+	c #D7997C",
"t+	c #B07D65",
"u+	c #584136",
"v+	c #2A2928",
"w+	c #717171",
"x+	c #666565",
"y+	c #181C17",
"z+	c #53A45E",
"A+	c #7AF58B",
"B+	c #4D9A58",
"C+	c #0C0A08",
"D+	c #534036",
"E+	c #F2AD8C",
"F+	c #EDAA89",
"G+	c #F1AD8C",
"H+	c #ECA989",
"I+	c #EAA888",
"J+	c #1B1916",
"K+	c #616060",
"L+	c #22271F",
"M+	c #38703F",
"N+	c #79F38A",
"O+	c #264D2A",
"P+	c #151210",
"Q+	c #D09579",
"R+	c #F6B08F",
"S+	c #E7A686",
"T+	c #B17F67",
"U+	c #B07E65",
"V+	c #DFA081",
"W+	c #E4A384",
"X+	c #AE7C64",
"Y+	c #785948",
"Z+	c #E1A283",
"`+	c #362E28",
" @	c #5F5D5C",
".@	c #252923",
"+@	c #306337",
"@@	c #162F18",
"#@	c #1C1816",
"$@	c #E3A687",
"%@	c #BA866C",
"&@	c #C78F73",
"*@	c #795847",
"=@	c #B3826A",
"-@	c #7B5C4C",
";@	c #474340",
">@	c #1C231A",
",@	c #387340",
"'@	c #7AF78C",
")@	c #132B15",
"!@	c #2F2D27",
"~@	c #C6957D",
"{@	c #805D4B",
"]@	c #9E715C",
"^@	c #7D5B4B",
"/@	c #B7856C",
"(@	c #A97961",
"_@	c #8B634F",
":@	c #BA886F",
"<@	c #3F3B37",
"[@	c #6D6D6C",
"}@	c #525151",
"|@	c #182417",
"1@	c #4FA35B",
"2@	c #7BF98D",
"3@	c #163219",
"4@	c #2A2C23",
"5@	c #D29F87",
"6@	c #E1A182",
"7@	c #684B3C",
"8@	c #271C16",
"9@	c #34241C",
"0@	c #37271E",
"a@	c #3F2E26",
"b@	c #63493B",
"c@	c #7B5846",
"d@	c #A87860",
"e@	c #CE9579",
"f@	c #3D3834",
"g@	c #1C1F1B",
"h@	c #0E140C",
"i@	c #5FC26D",
"j@	c #27552E",
"k@	c #1D301E",
"l@	c #987767",
"m@	c #291C15",
"n@	c #443025",
"o@	c #E9A787",
"p@	c #39271F",
"q@	c #E6A585",
"r@	c #AE7F68",
"s@	c #6F6F6E",
"t@	c #4B4A4A",
"u@	c #161B14",
"v@	c #132814",
"w@	c #76EE87",
"x@	c #58B465",
"y@	c #102311",
"z@	c #474037",
"A@	c #EFAC8B",
"B@	c #B88369",
"C@	c #815B49",
"D@	c #916753",
"E@	c #765443",
"F@	c #7A5745",
"G@	c #F2AF8E",
"H@	c #675145",
"I@	c #413E3A",
"J@	c #6C6C6C",
"K@	c #222623",
"L@	c #0D140C",
"M@	c #224A27",
"N@	c #7BF88D",
"O@	c #214826",
"P@	c #1D321E",
"Q@	c #A07865",
"R@	c #C38C71",
"S@	c #EAA887",
"T@	c #946A55",
"U@	c #684A3B",
"V@	c #CF9477",
"W@	c #5A4033",
"X@	c #8A624F",
"Y@	c #F1AE8E",
"Z@	c #F3AE8E",
"`@	c #3C3631",
" #	c #514E4C",
".#	c #545756",
"+#	c #171D19",
"@#	c #080F06",
"##	c #58B666",
"$#	c #67D276",
"%#	c #2A5A30",
"&#	c #23251B",
"*#	c #443027",
"=#	c #936854",
"-#	c #563D30",
";#	c #775544",
">#	c #865F4D",
",#	c #AF7D64",
"'#	c #F2AE8E",
")#	c #AA7F6A",
"!#	c #342F2B",
"~#	c #646364",
"{#	c #222723",
"]#	c #091007",
"^#	c #2C5F33",
"/#	c #61C66F",
"(#	c #122413",
"_#	c #303A26",
":#	c #E6A485",
"<#	c #AF7C64",
"[#	c #C18A6F",
"}#	c #A3745D",
"|#	c #835D4A",
"1#	c #BE886E",
"2#	c #E9A888",
"3#	c #6C5447",
"4#	c #362F2A",
"5#	c #42413F",
"6#	c #0C0C0B",
"7#	c #060504",
"8#	c #0F301D",
"9#	c #55DA89",
"0#	c #5AE690",
"a#	c #72F48F",
"b#	c #29592F",
"c#	c #0E0C0A",
"d#	c #C89D7B",
"e#	c #9A6D58",
"f#	c #D09578",
"g#	c #BD876D",
"h#	c #C89176",
"i#	c #2D2825",
"j#	c #2D2924",
"k#	c #070604",
"l#	c #27623B",
"m#	c #57D987",
"n#	c #6CF08F",
"o#	c #53E190",
"p#	c #75F68E",
"q#	c #76EF87",
"r#	c #0C180C",
"s#	c #15110F",
"t#	c #CB997B",
"u#	c #F4B18E",
"v#	c #45372E",
"w#	c #2D2C27",
"x#	c #0F150D",
"y#	c #080605",
"z#	c #3C7B45",
"A#	c #70F28F",
"B#	c #7BF98E",
"C#	c #7CF98D",
"D#	c #64CC73",
"E#	c #0C140C",
"F#	c #3E3B2E",
"G#	c #796851",
"H#	c #A58167",
"I#	c #CD987B",
"J#	c #E5A585",
"K#	c #EAA988",
"L#	c #A87E67",
"M#	c #444137",
"N#	c #1C271C",
"O#	c #1E331E",
"P#	c #21251C",
"Q#	c #417E48",
"R#	c #79F48B",
"S#	c #78F38A",
"T#	c #26522C",
"U#	c #0B180B",
"V#	c #0C130B",
"W#	c #11160F",
"X#	c #161A13",
"Y#	c #181614",
"Z#	c #1B1A18",
"`#	c #1D1917",
" $	c #1A1614",
".$	c #0D0B0A",
"+$	c #151912",
"@$	c #2F472D",
"#$	c #62C670",
"$$	c #79F58B",
"%$	c #6FE280",
"&$	c #50A35C",
"*$	c #326438",
"=$	c #1B311C",
"-$	c #172A18",
";$	c #1E371F",
">$	c #233922",
",$	c #2B4A2C",
"'$	c #3B7040",
")$	c #44854C",
"!$	c #69D679",
"  . . . + @ . @ # .   . $ .         . $ .   . # @ . @ + . . . $ ",
"  . %   .   & * . @ = - ; > , ' ) ! ~ { ] . @ . * &   .   % . % ",
"$ @ + . @ . . + ^ / ( _ : < [ } [ | 1 2 3 4 5 6 7 8 9 @ . + @ . ",
"  . . * . @ # 0 a b c d e f g h i h j k l m n o p q r . * . . . ",
".   $   $ @ s t u v w g g g g g g g g g x y z A B 9 C $   $   . ",
"D   . . * ; E F G h g g g g g g g g g g g g H I J K @ * . .   L ",
".   .   M b N O g g g g g g g g g g g g g g g P I Q # .   .   . ",
"$ R   S T U V g g g g g g g g g g g g g g g g g W X Y   @   R Z ",
". @ . `  ...+.x x @.j #.i $.%.&.x g g g g g g g *.=.-.S + . . . ",
";.. @ >.,.'.).!.~.{.].^./.(._.:.<.[.}.e g g g g g |.1.2.$ @ . @ ",
"$ @ 3.4.5.6.7.8.9.0.a.b.c.d.e.f.g.h.i.j.k.g g g g l.I m.# + @ . ",
". n.o.p.q.r.s.t.u.v.w.x.y.z.A.B.t.C.D.E.F.G.g g H.H.I.J.K.L.n.  ",
"M.N.O.P.Q.R.S.T.U.V.W.X.Y.Z.`. +.+++@+#+$+%+&+*+=+f -+;+>+,+N.'+",
")+!+~+{+]+^+/+(+_+:+<+[+}+|+1+2+3+4+5+6+7+8+9+f g g 0+=.a+b+!+)+",
"c+c+d+e+f+g+h+i+j+j+k+l+m+n+o+p+q+r+s+^+t+u+v+w+g g x+y+z+A+c+c+",
"c+c+B+C+D+}+r+r+j+E+q+i+q+i+i+F+i+G+H+k+r+I+J+i g g K+L+M+N+c+c+",
"c+c+O+P+Q+R+r+F+S+T+U+V+i+W+X+Y+Z+i+l+r+r+r+`+ @g g '..@+@A+c+c+",
"c+c+@@#@$@r+r+i+%@&@j+r+r+y.q+*@=@q+k+r+r+r+-@;@f g 9+>@,@'@c+c+",
"c+c+)@!@~@r+r+G+{@]@r+r+r+r+y.^@/@k+(@7+_@r+:@<@[@g }@|@1@2@c+c+",
"c+c+3@4@5@r+r+6@}+7@8@9@9@0@a@b@E+E+c@d@q+r+e@f@k g g@h@i@c+c+c+",
"c+c+j@k@l@j+m@n@E+l+o@F+F+F+}+i+G+G+p@q@r+r+r@f@s@t@u@v@w@c+c+c+",
"c+c+x@y@z@A@B@C@D@l+l+k+q+E+E+G+G+E@F@y.G@l+H@I@J@K@L@M@N@c+c+c+",
"c+c+N+O@P@Q@R@S@T@U@H+H+W+i+o@V@W@X@y.r+Y@Z@`@ #.#+#@###c+c+c+c+",
"c+c+c+$#%#&#*#q@r+E+=#-#W@U@;#>#,#k+r+r+'#)#!#~#{#]#^#N@c+c+c+c+",
"c+c+c+c+/#(#_#r+r+r+r+r+:#<#[#}#|#1#r+2#3#4#5#6#7#8#9#0#a#c+c+c+",
"c+c+c+c+c+b#c#d#r+r+r+r+r+e#f#g#j+r+r+h#i#j#2 k#l#m#n#o#p#c+c+c+",
"c+c+c+c+c+q#r#s#t#u#r+r+y.r+r+r+r+r+o@v#w#x#y#z#'@c+c+A#B#c+c+c+",
"c+c+c+c+c+C#D#3@E#F#G#H#I#J#G+l+K#L#M#N#O#P#Q#R#c+c+c+c+c+c+c+c+",
"c+c+c+c+c+c+c+S#T#U#V#W#X#Y#Z#`# $e+.$+$@$#$$$c+c+c+c+c+c+c+c+c+",
"c+c+c+c+c+c+c+c+N@%$&$*$=$-$;$>$,$'$)$!$N@c+c+c+c+c+c+c+c+c+c+c+",
"c+c+c+c+c+c+c+c+c+c+c+c+c+c+c+c+c+c+c+c+c+c+c+c+c+c+c+c+c+c+c+c+",
"c+c+c+c+c+c+c+c+c+c+c+c+c+c+c+c+c+c+c+c+c+c+c+c+c+c+c+c+c+c+c+c+"};
