/* XPM */
static char * Wall2_xpm[] = {
"32 32 6 1",
" 	c #DED6BD",
".	c #EFEFCE",
"+	c #B5AD94",
"@	c #C6BDA5",
"#	c #948C7B",
"$	c #ADA594",
"  .  .  +.. .. .  .  .  +.. .. .",
"@@ @@@@@#.@@@@@ @@ @@@@@#.@@@@@ ",
"@@@@@ @ $  @ @@@@@@@@ @ $  @ @@@",
"@@ +@@+ #.@@@@+@@@ +@@+ #.@@@@+@",
" @@@ @@@$ @@ @@@ @@@ @@@$ @@ @@@",
"@+@@+@@ #. @+@ @@+@@+@@ #. @+@ @",
"  @  @  # @ @ @@  @  @  # @ @ @@",
"$$##$###$+#$#$$#$$##$###$+#$#$$#",
"+.. .. .  .  .  +.. .. .  .  .  ",
"#.@@@@@ @@ @@@@@#.@@@@@ @@ @@@@@",
"$  @ @@@@@@@@ @ $  @ @@@@@@@@ @ ",
"#.@@@@+@@@ +@@+ #.@@@@+@@@ +@@+ ",
"$ @@ @@@ @@@ @@@$ @@ @@@ @@@ @@@",
"#. @+@ @@+@@+@@ #. @+@ @@+@@+@@ ",
"# @ @ @@  @  @  # @ @ @@  @  @  ",
"$+#$#$$#$$##$###$+#$#$$#$$##$###",
"  .  .  +.. .. .  .  .  +.. .. .",
"@@ @@@@@#.@@@@@ @@ @@@@@#.@@@@@ ",
"@@@@@ @ $  @ @@@@@@@@ @ $  @ @@@",
"@@ +@@+ #.@@@@+@@@ +@@+ #.@@@@+@",
" @@@ @@@$ @@ @@@ @@@ @@@$ @@ @@@",
"@+@@+@@ #. @+@ @@+@@+@@ #. @+@ @",
"  @  @  # @ @ @@  @  @  # @ @ @@",
"$$##$###$+#$#$$#$$##$###$+#$#$$#",
"+.. .. .  .  .  +.. .. .  .  .  ",
"#.@@@@@ @@ @@@@@#.@@@@@ @@ @@@@@",
"$  @ @@@@@@@@ @ $  @ @@@@@@@@ @ ",
"#.@@@@+@@@ +@@+ #.@@@@+@@@ +@@+ ",
"$ @@ @@@ @@@ @@@$ @@ @@@ @@@ @@@",
"#. @+@ @@+@@+@@ #. @+@ @@+@@+@@ ",
"# @ @ @@  @  @  # @ @ @@  @  @  ",
"$+#$#$$#$$##$###$+#$#$$#$$##$###"};
