/* XPM */
static char * wall_xpm[] = {
"32 32 199 2",
"  	c #868785",
". 	c #878A82",
"+ 	c #858881",
"@ 	c #828882",
"# 	c #878A85",
"$ 	c #8A8C87",
"% 	c #8B8B89",
"& 	c #8D8E87",
"* 	c #8A8E87",
"= 	c #8A8B87",
"- 	c #868A83",
"; 	c #858780",
"> 	c #82847F",
", 	c #80837F",
"' 	c #838482",
") 	c #868A86",
"! 	c #8A9089",
"~ 	c #898E88",
"{ 	c #8A8F88",
"] 	c #8B8F8A",
"^ 	c #8C9089",
"/ 	c #8A8E86",
"( 	c #8B8E8A",
"_ 	c #898B88",
": 	c #888B86",
"< 	c #8C8D89",
"[ 	c #8B8B8A",
"} 	c #8A8E88",
"| 	c #8B8D87",
"1 	c #848781",
"2 	c #848780",
"3 	c #82817F",
"4 	c #9FA499",
"5 	c #9FA297",
"6 	c #9FA39C",
"7 	c #9BA299",
"8 	c #9EA59D",
"9 	c #A3A79E",
"0 	c #A4AAA3",
"a 	c #A2AAA1",
"b 	c #A5A9A0",
"c 	c #A6A9A1",
"d 	c #A2A49E",
"e 	c #A1A29B",
"f 	c #A0A29B",
"g 	c #A2A49D",
"h 	c #A5A8A2",
"i 	c #A9ADA6",
"j 	c #ACACA7",
"k 	c #AAAFA7",
"l 	c #A8ACA4",
"m 	c #A5A8A1",
"n 	c #A1A6A1",
"o 	c #A2A59D",
"p 	c #A5A7A1",
"q 	c #A4A8A0",
"r 	c #9FA59D",
"s 	c #A1A49D",
"t 	c #A0A59D",
"u 	c #A3A6A1",
"v 	c #A8ABA7",
"w 	c #A7ABA7",
"x 	c #A7ACA5",
"y 	c #A5A9A2",
"z 	c #B4BAB0",
"A 	c #B3B9B1",
"B 	c #B4B9B1",
"C 	c #B2B9AF",
"D 	c #B4BAB1",
"E 	c #B5BDB1",
"F 	c #B8BEB5",
"G 	c #B7BFB4",
"H 	c #B7BDB2",
"I 	c #B6BBB3",
"J 	c #B5B8AF",
"K 	c #B7BBB1",
"L 	c #B8BCB0",
"M 	c #BABFB4",
"N 	c #BBBFB7",
"O 	c #BDC2B9",
"P 	c #BCC0B8",
"Q 	c #BBBEB7",
"R 	c #B7BBB3",
"S 	c #B6B8B0",
"T 	c #B5B9B1",
"U 	c #B5BBAF",
"V 	c #B4B7B1",
"W 	c #B1B6AD",
"X 	c #B0B5AB",
"Y 	c #B0B3AB",
"Z 	c #B5BAB2",
"` 	c #B9BDB5",
" .	c #BBC0B7",
"..	c #BABFB7",
"+.	c #B9BEB7",
"@.	c #BFC3B9",
"#.	c #C0C2BA",
"$.	c #BEC3BA",
"%.	c #BEC3BB",
"&.	c #BDC2BA",
"*.	c #BFC5BE",
"=.	c #BFC5BB",
"-.	c #BEC4BC",
";.	c #BFC4BA",
">.	c #BFC4B9",
",.	c #BEC2BA",
"'.	c #BFC2BD",
").	c #BFC3BB",
"!.	c #BFC4BB",
"~.	c #BEC2BB",
"{.	c #BEC3B9",
"].	c #C0C2BB",
"^.	c #BCBEB7",
"/.	c #BDBFB7",
"(.	c #BDC2B8",
"_.	c #BEC4BB",
":.	c #BABFB6",
"<.	c #BCC1B8",
"[.	c #757874",
"}.	c #757873",
"|.	c #767971",
"1.	c #767973",
"2.	c #787A73",
"3.	c #777973",
"4.	c #767873",
"5.	c #767872",
"6.	c #777872",
"7.	c #797A74",
"8.	c #787B75",
"9.	c #787C75",
"0.	c #797C76",
"a.	c #7A7C77",
"b.	c #797D76",
"c.	c #7B7F78",
"d.	c #7C7F78",
"e.	c #7B7F79",
"f.	c #7A7E78",
"g.	c #7B7E78",
"h.	c #7C7E78",
"i.	c #7B7E77",
"j.	c #5E605C",
"k.	c #5D5E5B",
"l.	c #5E615E",
"m.	c #60625D",
"n.	c #60625E",
"o.	c #5F615B",
"p.	c #5D605B",
"q.	c #5E605B",
"r.	c #5F615C",
"s.	c #5F605C",
"t.	c #5F5F5C",
"u.	c #5C5F5A",
"v.	c #5C5F5B",
"w.	c #60615D",
"x.	c #61615B",
"y.	c #5F625E",
"z.	c #61645F",
"A.	c #5E615C",
"B.	c #61635F",
"C.	c #60645E",
"D.	c #5F615D",
"E.	c #60605C",
"F.	c #4D4F4D",
"G.	c #4D4E4D",
"H.	c #4E5050",
"I.	c #505251",
"J.	c #505250",
"K.	c #50514E",
"L.	c #50514F",
"M.	c #51524F",
"N.	c #4F514F",
"O.	c #4D4E4C",
"P.	c #4C4D4C",
"Q.	c #4C4E4C",
"R.	c #4E4F4D",
"S.	c #4E504E",
"T.	c #4F514E",
"U.	c #515250",
"V.	c #535452",
"W.	c #525252",
"X.	c #525351",
"Y.	c #525452",
"Z.	c #515351",
"`.	c #515150",
" +	c #454545",
".+	c #464646",
"++	c #474747",
"@+	c #474848",
"#+	c #474746",
"$+	c #464645",
"%+	c #444545",
"&+	c #454645",
"*+	c #464746",
"=+	c #474847",
"-+	c #474646",
";+	c #444444",
">+	c #4A4A4A",
",+	c #494949",
"'+	c #494B4A",
"  . + @ # $ % & * = - ; > , ' ) ! ~ { ] ^ / ( _ : < [ } | 1 2 3 ",
"4 5 6 7 8 9 0 a b c d e f g h i j k l m n o p q r s t u v w x y ",
"z A B C D E F G H I J K K L M N O P Q R S T U V W X Y Z `  ...+.",
"@.#.$.%.&.*.=.-.;.@.>.,.'.>.).;.!.!.!.~.,.{.].,.^./.(.O _.;.).%.",
"!.!.!._.!.!.!.!.!.!.!.!.!.!.!.!.!.!.!.!.!.!.!.).=.!.!.;.!.!.!.!.",
"!.!.!.!.!.!.!.!.!.!.!.!.!.!.!.!.!.!.!.!.!.!.!.!.!.!.!.!.!.!.!.!.",
"!.!.!.!.!.!.!.!.!.!.!.!.!.!.!.!.!.!.!.!.!.!.!.!.!.!.!.!.!.!.!.!.",
"!.!.!.!.!.!.!.!.!.!.!.!.!.!.!.!.!.!.!.!.!.!.!.!.!.!.!.!.!.!.!.!.",
"!.!.!.!.!.!.!.!.!.!.!.!.!.!.!.!.!.!.!.!.!.!.!.!.!.!.!.!.!.!.!.!.",
":. . . . . . . .:. . . . .<.P P <.<.O <.<.O O O O O O O O O O O ",
"[.}.|.1.|.1.2.3.4.}.5.6.3.7.8.9.0.a.a.b.c.d.e.f.c.g.h.g.g.g.f.i.",
"j.k.l.m.m.n.o.p.q.r.s.p.j.t.u.v.j.w.x.n.y.z.y.A.q.A.B.C.y.D.E.s.",
"F.G.H.I.J.K.L.M.N.L.O.P.Q.R.S.T.L.U.J.U.V.W.T.F.F.L.X.Y.Z.`.L.U.",
" +.+++@+++.+.+.+#+.+$+ +%+&+*+=+++++=+++++-+.+;+ +.+++++++.+.+++",
">+>+>+>+>+>+>+,+,+,+,+,+>+,+,+'+>+,+>+>+,+>+>+>+>+>+>+>+>+>+,+,+",
">+>+>+>+>+>+>+>+>+>+>+>+>+>+>+>+>+>+>+>+>+>+>+>+>+>+>+>+,+>+,+>+",
">+>+>+>+>+>+>+>+>+>+>+>+>+>+>+>+>+>+>+>+>+>+>+>+>+>+>+>+>+>+>+>+",
">+>+>+>+>+>+>+>+>+>+>+>+>+>+>+>+>+>+>+>+>+>+>+>+>+>+>+>+>+>+>+>+",
">+>+>+>+>+>+>+>+>+>+>+>+>+>+>+>+>+>+>+>+>+>+>+>+>+>+>+>+>+>+>+>+",
">+>+>+>+>+>+>+>+>+>+>+>+>+>+>+>+>+>+>+>+>+>+>+>+>+>+>+>+>+>+>+>+",
">+>+>+>+>+>+>+>+>+>+>+>+>+>+>+>+>+>+>+>+>+>+>+>+>+>+>+>+>+>+>+>+",
">+>+>+>+>+>+>+>+>+>+>+>+>+>+>+>+>+>+>+>+>+>+>+>+>+>+>+>+>+>+>+>+",
">+>+>+>+>+>+>+>+>+>+>+>+>+>+>+>+>+>+>+>+>+>+>+>+>+>+>+>+>+>+>+>+",
">+>+>+>+>+>+>+>+>+>+>+>+>+>+>+>+>+>+>+>+>+>+>+>+>+>+>+>+>+>+>+>+",
">+>+>+>+>+>+>+>+>+>+>+>+>+>+>+>+>+>+>+>+>+>+>+>+>+>+>+>+>+>+>+>+",
">+>+>+>+>+>+>+>+>+>+>+>+>+>+>+>+>+>+>+>+>+>+>+>+>+>+>+>+>+>+>+>+",
">+>+>+>+>+>+>+>+>+>+>+>+>+>+>+>+>+>+>+>+>+>+>+>+>+>+>+>+>+>+>+>+",
">+>+>+>+>+>+>+>+>+>+>+>+>+>+>+>+>+>+>+>+>+>+>+>+>+>+>+>+>+>+>+>+",
">+>+>+>+>+>+>+>+>+>+>+>+>+>+>+>+>+>+>+>+>+>+>+>+>+>+>+>+>+>+>+>+",
">+>+>+>+>+>+>+>+>+>+>+>+>+>+>+>+>+>+>+>+>+>+>+>+>+>+>+>+>+>+>+>+",
">+>+>+>+>+>+>+>+>+>+>+>+>+>+>+>+>+>+>+>+>+>+>+>+>+>+>+>+>+>+>+>+",
">+>+>+>+>+>+>+>+>+>+>+>+>+>+>+>+>+>+>+>+>+>+>+>+>+>+>+>+>+>+>+>+"};
